<svg xmlns="http://www.w3.org/2000/svg" version="1.1" viewBox="-5.0 -10.0 110.0 135.0">
 <path d="m50 36.5c0.82812 0 1.5 0.67188 1.5 1.5v11.117l7.2266 4.0156c0.72656 0.40234 0.98828 1.3164 0.58594 2.0391-0.40234 0.72656-1.3164 0.98438-2.0391 0.58594l-8-4.4453c-0.47656-0.26562-0.77344-0.76953-0.77344-1.3125v-12c0-0.82812 0.67188-1.5 1.5-1.5z"/>
 <path d="m50 28.5c11.875 0 21.5 9.625 21.5 21.5s-9.625 21.5-21.5 21.5-21.5-9.625-21.5-21.5 9.625-21.5 21.5-21.5zm0 3c-10.219 0-18.5 8.2812-18.5 18.5s8.2812 18.5 18.5 18.5 18.5-8.2812 18.5-18.5-8.2812-18.5-18.5-18.5z" fill-rule="evenodd"/>
<text x="0.0" y="117.5" font-size="5.0" font-weight="bold" font-family="Arbeit Regular, Helvetica, Arial-Unicode, Arial, Sans-serif" fill="#000000">Created by Thomas Meerseman</text><text x="0.0" y="122.5" font-size="5.0" font-weight="bold" font-family="Arbeit Regular, Helvetica, Arial-Unicode, Arial, Sans-serif" fill="#000000">from Noun Project</text></svg>