<svg xmlns="http://www.w3.org/2000/svg" xmlns:xlink="http://www.w3.org/1999/xlink" version="1.1" x="0px" y="0px" viewBox="0 0 54.9148369 125" style="enable-background:new 0 0 54.9148369 100;" xml:space="preserve"><path d="M27.9616089,48.0634766c-11.2006836-2.887207-17.0375977-7.0888672-18.3691406-13.2226563  c-0.8701172-4.0078125,0.046875-8.1572266,2.581543-11.6835938c2.9472656-4.1005859,7.6645498-6.7885742,12.9423819-7.3745117  c5.6811523-0.6318359,11.2368164,1.0610352,15.2407227,4.6435547c3.4101563,3.0527344,5.2880859,7.1010742,5.2880859,11.3999023  c0,1.1044922,0.8955078,2,2,2s2-0.8955078,2-2c0-5.4516602-2.3515625-10.5585938-6.6210938-14.3803711  c-3.7016602-3.31427-8.4771729-5.2901611-13.5615234-5.7052002V6.9130859c0-1.1044922-0.8955078-2-2-2s-2,0.8955078-2,2v4.8267822  c-0.2624512,0.020813-0.5246582,0.0380859-0.7875977,0.0672607c-6.4013672,0.7109375-12.1416006,3.996582-15.7490225,9.0151367  c-3.2045898,4.4580078-4.355957,9.737793-3.2426758,14.8671875c2.21875,10.2182617,13.2075186,14.1665039,21.2797852,16.2470703  c12.2436523,3.1572266,18.3500977,8.2695313,18.6694336,15.6318359c0.3623047,8.3769531-6.9482422,15.8671875-16.2978516,16.6962891  c-5.5874023,0.5019531-11.0205078-1.2607422-14.9091787-4.8193359c-3.3183594-3.0371094-5.1459961-7.0400391-5.1459961-11.2714844  c0-1.1044922-0.8955078-2-2-2s-2,0.8955078-2,2c0,5.3671875,2.2890625,10.4179688,6.4453125,14.2216797  c3.7151489,3.4003296,8.5687246,5.4377441,13.737792,5.8612671v4.8301392c0,1.1044922,0.8955078,2,2,2s2-0.8955078,2-2v-4.8279419  c0.0754395-0.0059814,0.1501465-0.0032959,0.2255859-0.0099487c11.4492188-1.0146484,20.3945313-10.3701172,19.9404297-20.8544922  C49.2233276,58.0410156,42.1364136,51.7177734,27.9616089,48.0634766z"/><text x="0" y="115" fill="#000000" font-size="5px" font-weight="bold" font-family="'Helvetica Neue', Helvetica, Arial-Unicode, Arial, Sans-serif">Created by Bellowen</text><text x="0" y="120" fill="#000000" font-size="5px" font-weight="bold" font-family="'Helvetica Neue', Helvetica, Arial-Unicode, Arial, Sans-serif">from the Noun Project</text></svg>