<svg xmlns="http://www.w3.org/2000/svg" version="1.1" viewBox="-5.0 -10.0 110.0 135.0">
 <path d="m47.262 11.121-35.25 35.258c-0.73828 0.73828-0.89062 1.8789-0.53906 2.7383 0.35156 0.85156 1.2617 1.5391 2.3086 1.5391h4.6406v35.48c0 2.1211 1.7383 3.8594 3.8594 3.8594h17.469c0.85156 0 1.5391-0.67969 1.5391-1.5312v-25.309h17.422v25.309c0 0.85156 0.69141 1.5312 1.5391 1.5312h17.461c2.1211 0 3.8789-1.7383 3.8789-3.8594v-35.48h4.6289c1.0508 0 1.9609-0.69141 2.3086-1.5391 0.35156-0.85156 0.19922-1.9883-0.53906-2.7383l-35.258-35.258c-1.5-1.5-3.9688-1.5-5.4688 0zm2.168 2.1797c0.32812-0.32031 0.80078-0.32031 1.1289 0l34.289 34.281h-4.8008c-0.85156 0-1.5312 0.69141-1.5312 1.5391v37.012c0 0.46094-0.35156 0.78906-0.80859 0.78906h-15.93v-25.301c0-0.85156-0.67969-1.5391-1.5312-1.5391h-20.512c-0.41016 0-0.80078 0.16016-1.0898 0.44922-0.28906 0.28906-0.44922 0.67969-0.44922 1.0898v25.301h-15.93c-0.46094 0-0.78906-0.33984-0.78906-0.78906v-37.012c0-0.41016-0.16016-0.80078-0.44922-1.0898-0.28906-0.28906-0.67969-0.44922-1.0898-0.44922h-4.7812z"/>
<text x="0.0" y="117.5" font-size="5.0" font-weight="bold" font-family="Arbeit Regular, Helvetica, Arial-Unicode, Arial, Sans-serif" fill="#000000">Created by lailistudio</text><text x="0.0" y="122.5" font-size="5.0" font-weight="bold" font-family="Arbeit Regular, Helvetica, Arial-Unicode, Arial, Sans-serif" fill="#000000">from Noun Project</text></svg>