<svg xmlns="http://www.w3.org/2000/svg" version="1.1" viewBox="-5.0 -10.0 110.0 135.0">
 <path d="m49.996 2.9414c-5.6211 0-11.234 1.6094-16.133 4.8203l-1.2695 0.82422c-4.8945 3.2109-10.625 4.918-16.477 4.918h-2.5312c-0.8125 0.003906-1.4688 0.66406-1.4648 1.4766v44.215c0 10.965 9.5664 20.262 18.812 26.945s18.465 10.793 18.465 10.793v-0.003906c0.38281 0.17187 0.82031 0.17187 1.2031 0 0 0 9.2188-4.1094 18.465-10.793 9.2461-6.6836 18.812-15.98 18.812-26.945v-44.215 0.003907c0.003906-0.39453-0.15234-0.76953-0.42969-1.0469-0.27734-0.27734-0.65234-0.43359-1.0469-0.42969h-2.5195c-5.8555 0-11.582-1.707-16.477-4.918l-1.2695-0.82422c-4.8984-3.2109-10.52-4.8203-16.141-4.8203zm0 2.9414c5.0586 0 10.113 1.4375 14.523 4.332l1.2695 0.83594c5.375 3.5234 11.668 5.3945 18.094 5.3945h1.0547v42.75c0 9.1953-8.6406 18.094-17.598 24.566-8.6562 6.2539-16.758 9.8789-17.332 10.141-0.56641-0.25781-8.6875-3.8789-17.348-10.141-8.957-6.4727-17.598-15.371-17.598-24.566v-42.75h1.0547c6.4258 0 12.723-1.8711 18.094-5.3945l1.2617-0.83594c4.4102-2.8906 9.4688-4.332 14.523-4.332zm16.336 31.656c-0.39062 0-0.76562 0.15625-1.043 0.43359l-20.699 20.918-9.8789-9.9883c-0.27734-0.27734-0.64844-0.43359-1.0391-0.4375-0.39062 0-0.76562 0.15234-1.043 0.42578-0.57422 0.57031-0.58203 1.5-0.011718 2.0742l10.934 11.051-0.003906 0.003906c0.27734 0.27734 0.65234 0.4375 1.0469 0.4375s0.76953-0.16016 1.0469-0.4375l21.742-21.973c0.57031-0.57812 0.56641-1.5039-0.007812-2.0742-0.27344-0.27734-0.65234-0.43359-1.043-0.43359z"/>
<text x="0.0" y="117.5" font-size="5.0" font-weight="bold" font-family="Arbeit Regular, Helvetica, Arial-Unicode, Arial, Sans-serif" fill="#000000">Created by Larea</text><text x="0.0" y="122.5" font-size="5.0" font-weight="bold" font-family="Arbeit Regular, Helvetica, Arial-Unicode, Arial, Sans-serif" fill="#000000">from Noun Project</text></svg>